<?xml version="1.0" encoding="iso-8859-1"?>
<!-- Generator: Adobe Illustrator 16.0.0, SVG Export Plug-In . SVG Version: 6.00 Build 0)  -->
<!DOCTYPE svg PUBLIC "-//W3C//DTD SVG 1.1//EN" "http://www.w3.org/Graphics/SVG/1.1/DTD/svg11.dtd">
<svg version="1.1" id="Capa_1" xmlns="http://www.w3.org/2000/svg" xmlns:xlink="http://www.w3.org/1999/xlink" x="0px" y="0px"
	 width="88.129px" height="88.129px" viewBox="0 0 88.129 88.129" style="enable-background:new 0 0 88.129 88.129;"
	 xml:space="preserve">
<g>
	<g>
		<path d="M44.063,39.821c3.157,0,6.054-1.725,7.563-4.502c0.678-1.25,1.033-2.666,1.033-4.094c0-4.74-3.854-8.596-8.597-8.596
			c-4.74,0-8.596,3.855-8.596,8.596c0,1.585,0.443,3.143,1.281,4.501C38.331,38.293,41.063,39.821,44.063,39.821z M44.063,24.631
			c3.638,0,6.597,2.959,6.597,6.596c0,1.097-0.271,2.184-0.793,3.14c-1.156,2.133-3.382,3.456-5.804,3.456
			c-2.301,0-4.396-1.175-5.611-3.144c-0.645-1.044-0.984-2.237-0.984-3.452C37.467,27.59,40.426,24.631,44.063,24.631z"/>
		<path d="M18.998,46.257c-0.213,0.25-0.289,0.587-0.206,0.901l7.416,28.25c0.091,0.349,0.36,0.618,0.707,0.714
			c0.347,0.094,0.716-0.008,0.969-0.262c0.973-0.978,1.989-2.786,3.167-4.879c1.543-2.742,3.394-6.033,5.232-7.424v0.806
			c0,0.554,0.447,1,1,1h13.563c0.555,0,1-0.446,1-1v-0.548c1.84,1.393,3.689,4.682,5.232,7.422c1.178,2.096,2.192,3.904,3.168,4.883
			c0.188,0.189,0.444,0.293,0.709,0.293c0.088,0,0.174-0.012,0.262-0.035c0.346-0.092,0.615-0.364,0.705-0.711l7.416-28.248
			c0.082-0.314,0.006-0.651-0.205-0.9c-1.328-1.559-2.756-2.979-4.254-4.23c0.705-2.833,1.062-5.721,1.062-8.592
			c0-13.872-8.192-26.74-21.383-33.585c-0.289-0.148-0.633-0.148-0.922,0c-13.191,6.843-21.384,19.71-21.384,33.581
			c0,2.788,0.335,5.588,0.997,8.333C21.754,43.275,20.327,44.698,18.998,46.257z M25,43.178c0.307-0.247,0.441-0.65,0.342-1.031
			c-0.723-2.778-1.089-5.623-1.089-8.453c0-12.96,7.59-25.01,19.843-31.566C56.351,8.685,63.94,20.733,63.94,33.693
			c0,2.902-0.387,5.823-1.147,8.682c-0.056,0.191-0.033,0.429,0.028,0.616c0.064,0.18,0.175,0.337,0.318,0.455
			c1.449,1.167,2.836,2.5,4.129,3.974l-6.758,25.742c-0.527-0.832-1.102-1.854-1.691-2.904c-2.188-3.887-4.666-8.295-7.748-9.01
			c-0.073-0.02-0.147-0.026-0.227-0.026c-0.225,0-0.443,0.075-0.623,0.219c-0.238,0.188-0.377,0.479-0.377,0.781v1.145H38.283V61.97
			c0-0.307-0.14-0.594-0.378-0.783c-0.238-0.188-0.55-0.26-0.849-0.19c-3.082,0.717-5.562,5.125-7.749,9.014
			c-0.591,1.053-1.164,2.068-1.69,2.9l-6.759-25.746C22.158,45.683,23.548,44.342,25,43.178z"/>
		<path d="M43.146,68.357c-2.275,0-5.818,0.209-7.005,1.438c-0.171,0.06-0.324,0.162-0.442,0.306
			c-0.19,0.229-0.27,0.526-0.217,0.817c2.815,15.532,6.297,17.211,7.664,17.211c4.104,0,6.726-12.037,7.663-17.211
			c0.053-0.291-0.022-0.594-0.217-0.817c-0.117-0.144-0.271-0.246-0.441-0.306C48.964,68.566,45.42,68.357,43.146,68.357z
			 M43.146,86.127c-1.487,0-4.04-6.858-5.563-14.854c0.035-0.055,0.064-0.11,0.088-0.172c0.513-0.288,2.433-0.743,5.475-0.743
			c3.043,0,4.963,0.455,5.476,0.743c0.022,0.062,0.055,0.117,0.09,0.172C47.187,79.266,44.633,86.127,43.146,86.127z"/>
	</g>
</g>
<g>
</g>
<g>
</g>
<g>
</g>
<g>
</g>
<g>
</g>
<g>
</g>
<g>
</g>
<g>
</g>
<g>
</g>
<g>
</g>
<g>
</g>
<g>
</g>
<g>
</g>
<g>
</g>
<g>
</g>
</svg>
